<?xml version="1.0" encoding="UTF-8" standalone="no"?>
<!DOCTYPE svg PUBLIC "-//W3C//DTD SVG 1.1//EN" "http://www.w3.org/Graphics/SVG/1.1/DTD/svg11.dtd">
<svg width="100%" height="100%" viewBox="0 0 2481 3508" version="1.1" xmlns="http://www.w3.org/2000/svg" xmlns:xlink="http://www.w3.org/1999/xlink" xml:space="preserve" xmlns:serif="http://www.serif.com/" style="fill-rule:evenodd;clip-rule:evenodd;stroke-linejoin:round;stroke-miterlimit:2;">
    <g>
        <path d="M665.284,865.639C668.241,865.639 670.642,865.314 672.486,864.663C675.986,863.415 677.735,861.095 677.735,857.705C677.735,855.724 676.867,854.192 675.131,853.107C673.395,852.049 670.669,851.113 666.952,850.299L660.605,848.875C654.366,847.464 650.052,845.932 647.665,844.277C643.623,841.51 641.602,837.183 641.602,831.297C641.602,825.926 643.556,821.463 647.462,817.91C651.368,814.356 657.105,812.579 664.674,812.579C670.994,812.579 676.386,814.254 680.848,817.605C685.31,820.955 687.65,825.817 687.867,832.192L675.823,832.192C675.606,828.584 674.032,826.021 671.103,824.501C669.15,823.498 666.722,822.996 663.819,822.996C660.591,822.996 658.014,823.647 656.088,824.949C654.162,826.251 653.199,828.069 653.199,830.402C653.199,832.545 654.148,834.145 656.047,835.203C657.268,835.908 659.872,836.736 663.86,837.685L674.195,840.167C678.725,841.252 682.143,842.704 684.449,844.521C688.03,847.342 689.82,851.425 689.82,856.769C689.82,862.248 687.725,866.799 683.534,870.42C679.342,874.042 673.422,875.852 665.772,875.852C657.96,875.852 651.816,874.069 647.34,870.502C642.864,866.934 640.626,862.031 640.626,855.792L652.589,855.792C652.968,858.532 653.714,860.58 654.827,861.936C656.861,864.405 660.347,865.639 665.284,865.639Z" style="fill-rule:nonzero;"/>
        <path d="M725.627,875.974C717.055,875.974 710.504,873.642 705.974,868.976C699.898,863.252 696.86,855.005 696.86,844.236C696.86,833.25 699.898,825.003 705.974,819.497C710.504,814.831 717.055,812.498 725.627,812.498C734.199,812.498 740.751,814.831 745.281,819.497C751.33,825.003 754.355,833.25 754.355,844.236C754.355,855.005 751.33,863.252 745.281,868.976C740.751,873.642 734.199,875.974 725.627,875.974ZM737.468,859.861C740.371,856.199 741.822,850.991 741.822,844.236C741.822,837.509 740.364,832.307 737.448,828.632C734.532,824.956 730.592,823.118 725.627,823.118C720.663,823.118 716.703,824.949 713.746,828.611C710.789,832.273 709.311,837.482 709.311,844.236C709.311,850.991 710.789,856.199 713.746,859.861C716.703,863.523 720.663,865.354 725.627,865.354C730.592,865.354 734.539,863.523 737.468,859.861Z" style="fill-rule:nonzero;"/>
        <path d="M789.389,850.787L776.449,850.787L776.449,874.306L764.202,874.306L764.202,814.329L793.621,814.329C797.825,814.41 801.06,814.926 803.325,815.875C805.59,816.825 807.51,818.222 809.083,820.066C810.385,821.585 811.416,823.267 812.175,825.112C812.935,826.956 813.315,829.059 813.315,831.419C813.315,834.267 812.596,837.068 811.158,839.821C809.72,842.575 807.347,844.521 804.037,845.66C806.804,846.773 808.764,848.353 809.917,850.401C811.07,852.449 811.646,855.575 811.646,859.78L811.646,863.808C811.646,866.548 811.755,868.406 811.972,869.383C812.297,870.929 813.057,872.068 814.25,872.801L814.25,874.306L800.457,874.306C800.077,872.977 799.806,871.905 799.643,871.092C799.317,869.41 799.141,867.687 799.114,865.924L799.032,860.349C798.978,856.525 798.28,853.975 796.937,852.7C795.594,851.425 793.078,850.787 789.389,850.787ZM796.998,839.882C799.494,838.743 800.741,836.492 800.741,833.128C800.741,829.493 799.534,827.051 797.12,825.804C795.764,825.098 793.729,824.746 791.016,824.746L776.449,824.746L776.449,840.859L790.65,840.859C793.471,840.859 795.587,840.533 796.998,839.882Z" style="fill-rule:nonzero;"/>
        <path d="M859.213,861.977L837.118,861.977L832.968,874.306L819.866,874.306L841.269,814.329L855.429,814.329L876.669,874.306L863.079,874.306L859.213,861.977ZM855.714,851.642L848.227,828.042L840.496,851.642L855.714,851.642Z" style="fill-rule:nonzero;"/>
    </g>
</svg>
